<svg width="26" height="30" viewBox="0 0 26 30" fill="none" xmlns="http://www.w3.org/2000/svg">
<g filter="url(#filter0_d_163_542)">
<path d="M21.947 8.30545C21.9375 7.54801 21.7957 6.79805 21.528 6.08945C21.2969 5.49128 20.9433 4.94805 20.4898 4.49462C20.0364 4.04118 19.4932 3.68756 18.895 3.45645C18.1954 3.19369 17.4562 3.05167 16.709 3.03645C15.747 2.99345 15.442 2.98145 13 2.98145C10.558 2.98145 10.245 2.98145 9.29001 3.03645C8.54316 3.05178 7.80433 3.1938 7.10501 3.45645C6.50685 3.68756 5.96362 4.04118 5.51018 4.49462C5.05674 4.94805 4.70312 5.49128 4.47201 6.08945C4.20971 6.78882 4.06803 7.52765 4.05301 8.27445C4.01001 9.23745 3.99701 9.54245 3.99701 11.9844C3.99701 14.4264 3.99701 14.7384 4.05301 15.6944C4.06801 16.4424 4.20901 17.1804 4.47201 17.8814C4.70335 18.4795 5.05718 19.0226 5.51079 19.4759C5.96439 19.9291 6.50776 20.2826 7.10601 20.5134C7.80353 20.7863 8.54242 20.9385 9.29101 20.9634C10.254 21.0064 10.559 21.0194 13.001 21.0194C15.443 21.0194 15.756 21.0194 16.711 20.9634C17.4581 20.9485 18.1973 20.8069 18.897 20.5444C19.4945 20.3123 20.0372 19.9583 20.4905 19.505C20.9438 19.0517 21.2978 18.509 21.53 17.9114C21.793 17.2114 21.934 16.4734 21.949 15.7244C21.992 14.7624 22.005 14.4574 22.005 12.0144C22.003 9.57245 22.003 9.26245 21.947 8.30545ZM12.994 16.6024C10.44 16.6024 8.37101 14.5334 8.37101 11.9794C8.37101 9.42545 10.44 7.35645 12.994 7.35645C14.2201 7.35645 15.396 7.84351 16.263 8.71049C17.1299 9.57747 17.617 10.7533 17.617 11.9794C17.617 13.2055 17.1299 14.3814 16.263 15.2484C15.396 16.1154 14.2201 16.6024 12.994 16.6024ZM17.801 8.26344C17.6594 8.26358 17.5192 8.23578 17.3883 8.18166C17.2575 8.12753 17.1386 8.04813 17.0385 7.948C16.9383 7.84787 16.8589 7.72898 16.8048 7.59813C16.7507 7.46729 16.7229 7.32705 16.723 7.18545C16.723 7.04395 16.7509 6.90383 16.805 6.7731C16.8592 6.64238 16.9385 6.52359 17.0386 6.42354C17.1387 6.32348 17.2574 6.24411 17.3882 6.18997C17.5189 6.13582 17.659 6.10795 17.8005 6.10795C17.942 6.10795 18.0821 6.13582 18.2129 6.18997C18.3436 6.24411 18.4624 6.32348 18.5624 6.42354C18.6625 6.52359 18.7418 6.64238 18.796 6.7731C18.8501 6.90383 18.878 7.04395 18.878 7.18545C18.878 7.78145 18.396 8.26344 17.801 8.26344Z" fill="#D2DFE9"/>
<path d="M12.994 14.9816C14.6525 14.9816 15.997 13.6371 15.997 11.9786C15.997 10.3201 14.6525 8.97559 12.994 8.97559C11.3355 8.97559 9.99103 10.3201 9.99103 11.9786C9.99103 13.6371 11.3355 14.9816 12.994 14.9816Z" fill="#D2DFE9"/>
</g>
<defs>
<filter id="filter0_d_163_542" x="-3" y="0" width="32" height="32" filterUnits="userSpaceOnUse" color-interpolation-filters="sRGB">
<feFlood flood-opacity="0" result="BackgroundImageFix"/>
<feColorMatrix in="SourceAlpha" type="matrix" values="0 0 0 0 0 0 0 0 0 0 0 0 0 0 0 0 0 0 127 0" result="hardAlpha"/>
<feOffset dy="4"/>
<feGaussianBlur stdDeviation="2"/>
<feComposite in2="hardAlpha" operator="out"/>
<feColorMatrix type="matrix" values="0 0 0 0 0 0 0 0 0 0 0 0 0 0 0 0 0 0 0.25 0"/>
<feBlend mode="normal" in2="BackgroundImageFix" result="effect1_dropShadow_163_542"/>
<feBlend mode="normal" in="SourceGraphic" in2="effect1_dropShadow_163_542" result="shape"/>
</filter>
</defs>
</svg>
